Coordinates
version=1
nRows=23
nColumns=28
inDegrees=yes

Units are S.I. units (second, meters, Newtons, ...)
Angles are in degrees.

endheader
time	pelvis_tilt	pelvis_list	pelvis_rotation	pelvis_tx	pelvis_ty	pelvis_tz	hip_flexion_r	hip_adduction_r	hip_rotation_r	knee_angle_r	ankle_angle_r	subtalar_angle_r	mtp_angle_r	hip_flexion_l	hip_adduction_l	hip_rotation_l	knee_angle_l	socket_flexion	socket_adduction	socket_rotation	socket_tx	socket_ty	socket_tz	foot_flex	lumbar_extension	lumbar_bending	lumbar_rotation
      0.82083333	      0.16337774	     -7.28311493	      7.09173995	      0.35396574	      0.98401207	      0.23016990	      6.83229516	     14.80456072	      3.79649399	    -18.62067948	      1.06366543	    -25.28422831	      0.41620413	     23.61948329	    -17.31064838	      2.58757688	    -69.26726204	      0.00000000	      0.00000000	      0.00000000	      0.00000000	     -0.00059978	      0.00000000	     -1.46355336	     -6.84090432	      6.91158607	     -8.53504686
      0.82500000	      0.06006054	     -6.94876217	      6.95170144	      0.35915840	      0.98521078	      0.22946679	      6.31066960	     14.38494598	      3.93721568	    -18.23950164	      1.03737348	    -25.08019218	      0.52991715	     24.34926697	    -16.57020564	      2.79964205	    -68.90028053	      0.00000000	      0.00000000	      0.00000000	      0.00000000	      0.00013735	      0.00000000	     -1.46695401	     -6.81311950	      6.59005611	     -8.41911904
      0.82916667	     -0.04604199	     -6.62818176	      6.82763496	      0.36441006	      0.98638672	      0.22881041	      5.79370931	     13.97849336	      4.04733952	    -17.84545435	      1.00369082	    -24.86443562	      0.64708423	     25.06555439	    -15.86502369	      2.99892807	    -68.48393452	      0.00000000	      0.00000000	      0.00000000	      0.00000000	      0.00089287	      0.00000000	     -1.46620075	     -6.78559876	      6.26879094	     -8.30485588
      0.83333333	     -0.14907560	     -6.31762989	      6.71284884	      0.36964489	      0.98751187	      0.22824116	      5.28245049	     13.58816028	      4.14349204	    -17.45028806	      0.95977939	    -24.63886908	      0.76990035	     25.75663022	    -15.19935738	      3.18681726	    -68.00382789	      0.00000000	      0.00000000	      0.00000000	      0.00000000	      0.00158082	      0.00000000	     -1.45725471	     -6.75512800	      5.95277534	     -8.19546358
      0.83750000	     -0.24723623	     -6.03027147	      6.60346357	      0.37490677	      0.98862281	      0.22775086	      4.77898442	     13.22930438	      4.22445111	    -17.06462854	      0.90840149	    -24.41394940	      0.89662708	     26.41804727	    -14.59010607	      3.35134278	    -67.46472508	      0.00000000	      0.00000000	      0.00000000	      0.00000000	      0.00227120	      0.00000000	     -1.44176642	     -6.72822970	      5.64615076	     -8.09418691
      0.84166667	     -0.35406817	     -5.74086872	      6.49808893	      0.38024829	      0.98966935	      0.22732031	      4.27039062	     12.87732930	      4.30947251	    -16.65752545	      0.84253749	    -24.18171491	      1.03387598	     27.04528667	    -13.99715224	      3.49746075	    -66.85884301	      0.00000000	      0.00000000	      0.00000000	      0.00000000	      0.00287349	      0.00000000	     -1.41964297	     -6.68648173	      5.33709596	     -7.99308688
      0.84583333	     -0.44919368	     -5.45879504	      6.38554044	      0.38560646	      0.99073114	      0.22695736	      3.75581904	     12.53819578	      4.39855071	    -16.24935469	      0.76072025	    -23.95369398	      1.18130186	     27.62269372	    -13.44476509	      3.61110680	    -66.18602707	      0.00000000	      0.00000000	      0.00000000	      0.00000000	      0.00346998	      0.00000000	     -1.39359522	     -6.64951172	      5.02773287	     -7.89556808
      0.85000000	     -0.00898114	     -4.99050034	      6.19581912	      0.39142923	      0.99267529	      0.22669365	      2.57843966	     11.99097998	      4.23850922	    -15.75184543	      0.69298881	    -23.15000137	      2.76622266	     27.24755260	    -12.86950179	      3.44473294	    -65.10640444	      0.00000000	      0.00000000	      0.00000000	      0.00000000	      0.00320161	      0.00000000	     -1.40213180	     -7.22382770	      4.55327251	     -7.64377747
      0.85416667	     -0.16997559	     -4.78244886	      6.07048724	      0.39666302	      0.99350730	      0.22646513	      2.19357745	     11.74948137	      4.39984906	    -15.41860753	      0.61634854	    -23.07696041	      2.83939689	     27.89422342	    -12.42672684	      3.56751494	    -64.37586946	      0.00000000	      0.00000000	      0.00000000	      0.00000000	      0.00377922	      0.00000000	     -1.33740655	     -7.11828063	      4.32360600	     -7.58661585
      0.85833333	     -0.32103135	     -4.57791776	      5.91963484	      0.40197183	      0.99431979	      0.22629019	      1.80051391	     11.50773304	      4.54129256	    -15.08705935	      0.50114262	    -23.01480832	      2.89806905	     28.46912591	    -12.02128067	      3.64746959	    -63.56218552	      0.00000000	      0.00000000	      0.00000000	      0.00000000	      0.00425221	      0.00000000	     -1.26472280	     -7.01373020	      4.10592177	     -7.51817989
      0.86250000	     -0.42575375	     -4.29572357	      5.71082830	      0.40742097	      0.99527832	      0.22634690	      1.29887311	     11.19518278	      4.74930589	    -14.66440095	      0.20035092	    -22.99778658	      3.02070896	     28.87551967	    -11.62142600	      3.56990437	    -62.61280743	      0.00000000	      0.00000000	      0.00000000	      0.00000000	      0.00467610	      0.00000000	     -1.26156583	     -6.95898180	      3.76305740	     -7.39248142
      0.86666667	     -0.22390767	     -3.96091868	      5.33847135	      0.41311487	      0.99674191	      0.22670592	      0.38892367	     10.88422165	      5.27150019	    -14.16243769	     -0.29187443	    -23.43493175	      3.44781203	     28.66698344	    -11.33624700	      3.23563160	    -61.34911155	      0.00000000	      0.00000000	      0.00000000	      0.00000000	      0.00433962	      0.00000000	     -1.20544087	     -7.26160244	      3.36423886	     -6.98566099
      0.87083333	     -0.38348840	     -3.80748876	      5.22007720	      0.41848161	      0.99740527	      0.22659008	      0.00119080	     10.70476706	      5.40034909	    -13.79587892	     -0.35912900	    -23.45234254	      3.49500557	     29.16040303	    -11.03456333	      3.28929534	    -60.35606505	      0.00000000	      0.00000000	      0.00000000	      0.00000000	      0.00459849	      0.00000000	     -1.11826557	     -7.13435703	      3.19363642	     -6.92676606
      0.87500000	     -0.47392632	     -3.71398204	      5.07590402	      0.42341294	      0.99801264	      0.22651891	     -0.28658891	     10.60257323	      5.51912534	    -13.70833385	     -0.43640370	    -23.44557844	      3.50895941	     29.62885626	    -10.79646864	      3.40641169	    -59.37054046	      0.00000000	      0.00000000	      0.00000000	      0.00000000	      0.00493314	      0.00000000	     -0.94461292	     -7.13498619	      3.12367844	     -6.88986393
      0.87916667	     -0.20121644	     -3.23572771	      4.51040991	      0.42961360	      0.99968563	      0.22736862	     -1.43111641	     10.14976823	      6.36875836	    -12.97627659	     -1.10679750	    -24.11516034	      3.70804976	     28.97504746	    -10.56378782	      2.67828504	    -57.66693533	      0.00000000	      0.00000000	      0.00000000	      0.00000000	      0.00408293	      0.00000000	     -1.00080878	     -7.47612188	      2.50053679	     -6.28265119
      0.88333333	     -0.38488524	     -3.11895492	      4.38811159	      0.43501576	      1.00014630	      0.22731428	     -1.74743882	     10.00333798	      6.44442240	    -12.66991466	     -1.21473131	    -24.14248894	      3.71501314	     29.37437830	    -10.34247935	      2.69484014	    -56.45097255	      0.00000000	      0.00000000	      0.00000000	      0.00000000	      0.00409216	      0.00000000	     -0.89387696	     -7.29449155	      2.35944979	     -6.25556656
      0.88750000	     -0.16262000	     -2.76761653	      3.87483708	      0.44075961	      1.00145323	      0.22797651	     -2.62898278	      9.66129932	      7.16638524	    -12.24635951	     -1.73683924	    -24.70945516	      3.78339623	     28.88731336	    -10.17772641	      2.11586372	    -54.79836478	      0.00000000	      0.00000000	      0.00000000	      0.00000000	      0.00339347	      0.00000000	     -0.84784250	     -7.62223098	      1.93270367	     -5.78846146
      0.89166667	     -0.34458443	     -2.62888609	      3.71994057	      0.44616141	      1.00183878	      0.22795905	     -2.93527194	      9.49090016	      7.29272875	    -11.95756722	     -1.88744479	    -24.74495708	      3.77625483	     29.19310976	     -9.95813386	      2.08477301	    -53.43906464	      0.00000000	      0.00000000	      0.00000000	      0.00000000	      0.00330693	      0.00000000	     -0.75813874	     -7.44290878	      1.77504608	     -5.75287697
      0.89583333	     -0.51068619	     -2.49840048	      3.52899842	      0.45171252	      1.00219121	      0.22801830	     -3.25641155	      9.32927261	      7.43210246	    -11.69787213	     -2.01977006	    -24.79917091	      3.76482808	     29.37552730	     -9.79756884	      1.93922665	    -51.94951878	      0.00000000	      0.00000000	      0.00000000	      0.00000000	      0.00290824	      0.00000000	     -0.67754296	     -7.27566673	      1.62772917	     -5.68891166
      0.90000000	     -0.62674869	     -2.43976709	      3.38543109	      0.45672599	      1.00245481	      0.22783316	     -3.48165790	      9.25484435	      7.55403731	    -11.65990614	     -2.09579797	    -24.82294135	      3.75897699	     29.63804917	     -9.63224408	      1.99578560	    -50.57093283	      0.00000000	      0.00000000	      0.00000000	      0.00000000	      0.00288588	      0.00000000	     -0.46115648	     -7.23436222	      1.60855117	     -5.63929024
      0.90416667	     -0.04624148	     -1.87361073	      2.43703473	      0.46313997	      1.00432338	      0.22926821	     -4.92495066	      8.64301310	      8.77807821	    -11.00047084	     -2.70352889	    -25.55105207	      3.73653896	     28.13010879	     -9.57916440	      0.64657720	    -48.16123838	      0.00000000	      0.00000000	      0.00000000	      0.00000000	      0.00121052	      0.00000000	     -0.57993303	     -7.89992733	      0.84552412	     -4.59365439
      0.90833333	     -0.17575094	     -1.69005700	      2.20446115	      0.46868193	      1.00459193	      0.22928733	     -5.29025320	      8.40669402	      9.00065824	    -10.71371304	     -3.00275319	    -25.68670562	      3.70817389	     28.14716190	     -9.38011157	      0.41871294	    -46.47222690	      0.00000000	      0.00000000	      0.00000000	      0.00000000	      0.00085921	      0.00000000	     -0.49579354	     -7.77458867	      0.64650433	     -4.57059926
      0.91250000	     -0.23832135	     -1.53893045	      1.86051617	      0.47421623	      1.00487879	      0.22943121	     -5.71539247	      8.19395424	      9.28242011	    -10.44460707	     -3.18278362	    -25.83396876	      3.70736043	     27.99947745	     -9.25809415	      0.13837967	    -44.66046954	      0.00000000	      0.00000000	      0.00000000	      0.00000000	      0.00025713	      0.00000000	     -0.45766596	     -7.73278257	      0.46012641	     -4.39808461
